<?xml version="1.0" encoding="utf-8"?>
<!-- Generator: Adobe Illustrator 21.0.2, SVG Export Plug-In . SVG Version: 6.00 Build 0)  -->
<svg version="1.1" id="Слой_1" xmlns="http://www.w3.org/2000/svg" xmlns:xlink="http://www.w3.org/1999/xlink" x="0px" y="0px"
	 viewBox="0 0 750 471" style="enable-background:new 0 0 750 471;" xml:space="preserve">
<style type="text/css">
	.st0{fill:#C3C3C3;}
</style>
<g id="Page-1">
	<path id="Combined-Shape" class="st0" d="M0,40C0,17.9,17.9,0,40,0h670c22.1,0,40,17.9,40,40v391c0,22.1-17.9,40-40,40H40
		c-22.1,0-40-17.9-40-40V40z M524.5,142.7c-10.6-4-27.1-8.2-47.8-8.2c-52.7,0-89.9,26.6-90.2,64.6c-0.3,28.1,26.5,43.8,46.8,53.2
		c20.8,9.6,27.8,15.7,27.7,24.3c-0.1,13.1-16.6,19.1-31.9,19.1c-21.4,0-32.7-3-50.2-10.3l-6.9-3.1l-7.5,43.8
		c12.5,5.5,35.5,10.2,59.4,10.4c56.1,0,92.5-26.2,92.9-66.9c0.2-22.3-14-39.2-44.8-53.2c-18.7-9.1-30.1-15.1-30-24.3
		c0-8.1,9.7-16.8,30.6-16.8c17.4-0.3,30.1,3.5,39.9,7.5l4.8,2.3L524.5,142.7z M661.3,138.1h-41.2c-12.8,0-22.3,3.5-27.9,16.2
		l-79.2,179.4h56c0,0,9.2-24.1,11.2-29.4c6.1,0,60.6,0.1,68.3,0.1c1.6,6.9,6.5,29.3,6.5,29.3h49.5L661.3,138.1z M595.5,264.2
		c4.4-11.3,21.3-54.7,21.3-54.7c-0.3,0.5,4.4-11.3,7.1-18.7l3.6,16.9c0,0,10.2,46.7,12.4,56.5L595.5,264.2L595.5,264.2z
		 M277.7,333.6H331l33.4-195.8H311L277.7,333.6z M175.1,244.4l-18.7-90c-3.2-12.4-12.6-16.1-24.2-16.5h-86l-0.7,4.1
		c20.9,5.1,39.6,12.4,56,21.5l47.4,170l56.5-0.1l84-195.4h-56.5l-52.2,133.5L175.1,244.4C175.1,244.4,175.1,244.4,175.1,244.4z"/>
</g>
</svg>
