<svg version="1.1" xmlns="http://www.w3.org/2000/svg" xmlns:xlink="http://www.w3.org/1999/xlink" x="0px" y="0px"
	 viewBox="0 0 32 32" style="enable-background:new 0 0 32 32;" xml:space="preserve">
	<g>
		<path fill="#ffffff" d="M28,10H4c-0.6,0-1-0.4-1-1s0.4-1,1-1h24c0.6,0,1,0.4,1,1S28.6,10,28,10z"/>
		<path fill="#ffffff" d="M28,17H4c-0.6,0-1-0.4-1-1c0-0.6,0.4-1,1-1h24c0.6,0,1,0.4,1,1C29,16.6,28.6,17,28,17z"/>
		<path fill="#ffffff" d="M28,24H4c-0.6,0-1-0.4-1-1s0.4-1,1-1h24c0.6,0,1,0.4,1,1S28.6,24,28,24z"/>
	</g>
</svg>
