<?xml version="1.0" encoding="utf-8"?>
<!-- Generator: Adobe Illustrator 21.0.2, SVG Export Plug-In . SVG Version: 6.00 Build 0)  -->
<svg version="1.1" id="Слой_1" xmlns="http://www.w3.org/2000/svg" xmlns:xlink="http://www.w3.org/1999/xlink" x="0px" y="0px"
	 viewBox="0 0 750 471" style="enable-background:new 0 0 750 471;" xml:space="preserve">
<style type="text/css">
	.st0{fill:#C3C3C3;}
</style>
<g id="Page-1">
	<g id="mastercard">
		<path id="Shape" class="st0" d="M40,0h670c22.1,0,40,17.9,40,40v391c0,22.1-17.9,40-40,40H40c-22.1,0-40-17.9-40-40V40
			C0,17.9,17.9,0,40,0z M220.1,421.7v-24.9c0-9.5-5.8-15.7-15.3-15.7c-5,0-10.3,1.7-14.1,7c-2.9-4.6-7-7-13.3-7
			c-4.7-0.2-9.2,2-12,5.8v-5h-7.9v39.8h7.9v-22.8c0-7,4.1-10.4,9.9-10.4s9.1,3.7,9.1,10.4v22.8h7.9v-22.8c0-7,4.1-10.4,9.9-10.4
			s9.1,3.7,9.1,10.4v22.8H220.1z M349.4,382.3h-14.5v-12H327v12h-8.3v7h8.3V408c0,9.1,3.3,14.5,13.3,14.5c3.8-0.1,7.5-1.1,10.8-2.9
			l-2.5-7c-2.2,1.4-4.8,2.1-7.5,2.1c-4.1,0-6.2-2.5-6.2-6.6v-19h14.5L349.4,382.3L349.4,382.3z M423.1,381.1
			c-4.4-0.1-8.5,2.1-10.8,5.8v-5h-7.9v39.8h7.9v-22.3c0-6.6,3.3-10.8,8.7-10.8c1.8,0.1,3.6,0.4,5.4,0.8l2.5-7.5
			C427,381.4,425,381.2,423.1,381.1z M311.7,385.2c-4.1-2.9-9.9-4.1-16.1-4.1c-9.9,0-16.2,4.6-16.2,12.4c0,6.6,4.6,10.3,13.3,11.6
			l4.1,0.4c4.6,0.8,7.5,2.5,7.5,4.6c0,2.9-3.3,5-9.5,5c-4.7,0.1-9.4-1.4-13.3-4.1l-4.1,6.2c5.8,4.1,12.8,5,17,5
			c11.6,0,17.8-5.4,17.8-12.8c0-7-5-10.4-13.7-11.6l-4.1-0.4c-3.7-0.4-7-1.7-7-4.1c0-2.9,3.3-5,7.9-5c5,0,9.9,2.1,12.4,3.3
			L311.7,385.2z M431.8,401.8c0,12,7.9,20.7,20.7,20.7c5.8,0,9.9-1.2,14.1-4.6l-4.1-6.2c-2.9,2.4-6.6,3.7-10.4,3.7
			c-7,0-12.4-5.4-12.4-13.3S445,389,452.1,389c3.8,0,7.4,1.4,10.4,3.7l4.1-6.2c-4.1-3.3-8.3-4.6-14.1-4.6
			C440,381.1,431.8,389.8,431.8,401.8L431.8,401.8z M376.3,381.1c-11.6,0-19.5,8.3-19.5,20.7c0,12.4,8.3,20.7,20.3,20.7
			c5.8,0.1,11.5-1.8,16.1-5.4l-4.1-5.8c-3.3,2.6-7.4,4-11.6,4.1c-5.4,0-11.2-3.3-12-10.4h29.4v-3.3
			C394.9,389.4,387.5,381.1,376.3,381.1L376.3,381.1z M375.9,388.5c5.8,0,9.9,3.7,10.4,9.9h-21.5
			C365.9,392.7,369.7,388.5,375.9,388.5z M268.6,401.8v-19.9h-7.9v5c-2.9-3.7-7-5.8-12.8-5.8c-11.2,0-19.5,8.7-19.5,20.7
			c0,12,8.3,20.7,19.5,20.7c5.8,0,9.9-2.1,12.8-5.8v5h7.9V401.8z M236.7,401.8c0-7.5,4.6-13.3,12.4-13.3c7.5,0,12,5.8,12,13.3
			c0,7.9-5,13.3-12,13.3C241.3,415.5,236.7,409.2,236.7,401.8z M542.8,381.1c-4.4-0.1-8.5,2.1-10.8,5.8v-5h-7.9v39.8h7.9v-22.3
			c0-6.6,3.3-10.8,8.7-10.8c1.8,0.1,3.6,0.4,5.4,0.8l2.5-7.5C546.7,381.4,544.7,381.2,542.8,381.1L542.8,381.1z M512.1,401.8v-19.9
			h-7.9v5c-2.9-3.7-7-5.8-12.8-5.8c-11.2,0-19.5,8.7-19.5,20.7c0,12,8.3,20.7,19.5,20.7c5.8,0,9.9-2.1,12.8-5.8v5h7.9V401.8z
			 M480.2,401.8c0-7.5,4.6-13.3,12.4-13.3c7.5,0,12,5.8,12,13.3c0,7.9-5,13.3-12,13.3C484.8,415.5,480.2,409.2,480.2,401.8z
			 M592.1,401.8v-35.6h-7.9v20.7c-2.9-3.7-7-5.8-12.8-5.8c-11.2,0-19.5,8.7-19.5,20.7c0,12,8.3,20.7,19.5,20.7
			c5.8,0,9.9-2.1,12.8-5.8v5h7.9V401.8z M560.2,401.8c0-7.5,4.6-13.3,12.4-13.3c7.5,0,12,5.8,12,13.3c0,7.9-5,13.3-12,13.3
			C564.7,415.5,560.2,409.3,560.2,401.8L560.2,401.8z M566.8,92.1C515.4,40.7,434.2,33.9,375,76.2c-45.4-32.4-105.2-36.7-154.7-11.1
			s-80.7,76.7-80.7,132.5c0,55.8,31.1,106.9,80.7,132.5S329.6,351.4,375,319c45.4,32.4,105.2,36.7,154.7,11.1
			c49.6-25.6,80.7-76.7,80.7-132.5C610.6,158,594.9,120.1,566.8,92.1L566.8,92.1z M375,295.4c-28-24.8-44-60.4-44-97.8
			s16-73,44-97.8c28,24.8,44,60.4,44,97.8S403,270.6,375,295.4z M288.6,328c-72,0-130.4-58.4-130.4-130.4S216.6,67.3,288.6,67.3
			c25.2-0.1,50,7.3,71.1,21.1c-30.3,28.2-47.4,67.8-47.4,109.2s17.2,80.9,47.4,109.2C338.6,320.7,313.9,328.1,288.6,328z M461.4,328
			c-25.2,0.1-49.9-7.3-71-21.1c30.2-28.3,47.4-67.8,47.4-109.2s-17.2-80.9-47.4-109.2c21.1-13.9,45.8-21.3,71.1-21.2
			c72,0,130.4,58.4,130.4,130.4S533.4,328,461.4,328L461.4,328z"/>
	</g>
</g>
</svg>
