<svg width="20" height="20" viewBox="0 0 20 20" fill="none" xmlns="http://www.w3.org/2000/svg">
<path d="M6.25 2.5C3.71582 2.5 1.63086 4.40918 1.31836 6.85547C1.27441 7.05566 1.25 7.26562 1.25 7.5C1.25 10.3564 3.43262 12.9346 5.51758 14.8486C7.59766 16.7676 9.67774 18.0322 9.67774 18.0322L10 18.2324L10.3223 18.0322C10.3223 18.0322 12.4023 16.7676 14.4873 14.8486C16.5674 12.9346 18.75 10.3564 18.75 7.5C18.75 7.26562 18.7256 7.06055 18.6865 6.86523C18.3691 4.40918 16.2891 2.5 13.75 2.5C12.1973 2.5 10.9131 3.31055 10 4.42383C9.08691 3.31055 7.80273 2.5 6.25 2.5ZM6.25 3.75C7.62695 3.75 8.80859 4.49219 9.46289 5.5957L10 6.50391L10.5371 5.5957C11.1914 4.49219 12.373 3.75 13.75 3.75C15.6689 3.75 17.2217 5.18066 17.4512 7.04102L17.4609 7.08984C17.4854 7.20703 17.5 7.33887 17.5 7.5C17.5 9.6875 15.6201 12.1094 13.6377 13.9307C11.8213 15.6055 10.2881 16.5381 10 16.7188C9.71191 16.5381 8.17871 15.6055 6.35742 13.9307C4.37988 12.1094 2.5 9.6875 2.5 7.5C2.5 7.33398 2.51465 7.20215 2.53906 7.08984L2.54883 7.06055V7.03125C2.7832 5.18066 4.33105 3.75 6.25 3.75Z" fill="white"/>
</svg>
