<svg width="16" height="16" viewBox="0 0 16 16" fill="none" xmlns="http://www.w3.org/2000/svg">
<path d="M3.37121 1.04297L1.79699 2.61719C0.933705 3.48047 0.746205 4.82422 1.36339 5.87891C2.05089 7.05859 2.61339 7.92969 4.96886 10.2812C7.32042 12.6367 7.96105 12.957 9.12121 13.6367C10.1798 14.2539 11.5196 14.0664 12.379 13.2031L13.9571 11.6289L10.9103 8.58594L9.67199 9.82422C9.52355 9.75781 9.30089 9.64062 9.04308 9.47656C8.51183 9.13672 7.83214 8.61719 7.23449 8.01562C6.63292 7.41797 6.04699 6.67187 5.64074 6.07031C5.44152 5.77344 5.28136 5.50391 5.19542 5.32812C5.19152 5.32031 5.19152 5.32031 5.18761 5.3125L6.41417 4.08594L3.37121 1.04297ZM3.37121 2.45703L5.00011 4.08594L4.28527 4.80469C4.13683 4.95312 4.12121 5.11719 4.12511 5.21094C4.12511 5.30078 4.14074 5.36328 4.15636 5.42188C4.19152 5.54297 4.23839 5.64844 4.29699 5.77344C4.41808 6.01562 4.59386 6.30469 4.81261 6.63281C5.25011 7.28125 5.8673 8.06641 6.52355 8.72656C7.18371 9.38281 7.91027 9.9375 8.50792 10.3164C8.8048 10.5078 9.06652 10.6523 9.28918 10.75C9.40246 10.8008 9.50402 10.8398 9.62511 10.8633C9.68371 10.875 9.75011 10.8828 9.83996 10.875C9.9298 10.8711 10.0704 10.8398 10.1954 10.7148L10.9103 10L12.5431 11.6289L11.672 12.5C11.129 13.043 10.2892 13.1602 9.62511 12.7734C8.44542 12.082 7.99621 11.8984 5.67199 9.57812C3.35167 7.25391 2.90636 6.53906 2.22667 5.375C1.83996 4.71094 1.95714 3.87109 2.50011 3.32812L3.37121 2.45703Z" fill="black"/>
</svg>
