<svg width="20" height="20" viewBox="0 0 20 20" fill="none" xmlns="http://www.w3.org/2000/svg">
<path d="M1.25 1.24023V2.49023H3.75C4.01855 2.49023 4.24805 2.66602 4.33594 2.91992L5.50293 13.335C5.61035 14.2773 6.4209 15 7.36816 15H15V13.75H7.36816C7.0459 13.75 6.78223 13.5156 6.74805 13.1982L6.66992 12.5H14.5996C15.4883 12.5 16.2646 11.8652 16.4404 10.9961L17.6367 5H5.82519L5.55664 2.61719L5.53711 2.55859C5.29785 1.77734 4.57031 1.24512 3.75 1.24023H1.25ZM13.75 15C13.0615 15 12.5 15.5615 12.5 16.25C12.5 16.9385 13.0615 17.5 13.75 17.5C14.4385 17.5 15 16.9385 15 16.25C15 15.5615 14.4385 15 13.75 15ZM7.5 15C6.81152 15 6.25 15.5615 6.25 16.25C6.25 16.9385 6.81152 17.5 7.5 17.5C8.18848 17.5 8.75 16.9385 8.75 16.25C8.75 15.5615 8.18848 15 7.5 15ZM5.9668 6.25H16.1133L15.2148 10.7471C15.1514 11.0449 14.9023 11.25 14.5996 11.25H6.52832L5.9668 6.25Z" fill="white"/>
</svg>
