<?xml version="1.0" encoding="utf-8"?>
<!-- Generator: Adobe Illustrator 21.0.2, SVG Export Plug-In . SVG Version: 6.00 Build 0)  -->
<svg version="1.1" id="Слой_1" xmlns="http://www.w3.org/2000/svg" xmlns:xlink="http://www.w3.org/1999/xlink" x="0px" y="0px"
	 viewBox="0 0 750 471" style="enable-background:new 0 0 750 471;" xml:space="preserve">
<style type="text/css">
	.st0{fill:#C3C3C3;}
</style>
<g id="Page-1">
	<path id="Combined-Shape" class="st0" d="M697.1,0C726.3,0,750,23.2,750,51.7v367.6c0,28.5-23.7,51.7-52.9,51.7H52.9
		C23.7,471,0,447.8,0,419.3V51.7C0,23.2,23.7,0,52.9,0H697.1z M117.9,242.2c17.9,0,32-5,42.2-15.2c10.2-10.1,15.3-24.1,15.3-42
		c0-12.3-4-21.2-12-26.7c-8-5.5-18.5-8.3-31.4-8.3h-50c-4,0-6.1,2-6.6,5.9L55.1,283.4c-0.2,1.3,0.1,2.4,0.9,3.4
		c0.8,1,1.9,1.6,3.1,1.6h23.8c4.2,0,6.5-2,6.9-5.9l5.6-34.4c0.2-1.7,0.9-3,2.2-4.1c1.2-1,2.8-1.7,4.7-2c1.9-0.3,3.6-0.5,5.3-0.5
		c1.7,0,3.6,0.1,5.9,0.3C115.8,242.1,117.3,242.2,117.9,242.2z M242.1,224.2c3.9,3.4,5.8,8.2,5.8,14.2c0,7.7-2.7,14.1-8,19.2
		c-5.3,5.1-11.8,7.7-19.5,7.7c-6,0-10.9-1.7-14.5-5c-3.6-3.3-5.5-7.9-5.5-13.8c0-7.7,2.6-14.2,7.8-19.5c5.2-5.3,11.7-8,19.4-8
		C233.4,219.1,238.2,220.8,242.1,224.2z M284.8,200.9c0.2-1.3-0.1-2.4-0.9-3.4c-0.8-1-1.9-1.6-3.1-1.6H257c-2.9,0-4.7,3.4-5.3,10.3
		c-5.6-8.3-15.5-12.5-29.7-12.5c-15,0-27.8,5.6-38.3,16.9c-10.5,11.3-15.8,24.5-15.8,39.7c0,12.3,3.6,22.1,10.8,29.4
		c7.2,7.3,16.8,10.9,28.9,10.9c5.8,0,11.9-1.3,18.1-3.8c6.3-2.5,11.3-5.8,15-10c-0.8,2.5-1.3,4.7-1.3,6.6c0,3.3,1.4,5,4.1,5h21.6
		c4,0,6.3-2,6.9-5.9L284.8,200.9z M325.7,320.6c2.3,0,4.2-1,5.6-3.1l79.7-115c0.4-0.4,0.6-1.1,0.6-2.2c0-1-0.4-2-1.2-3
		c-0.8-0.9-1.8-1.4-2.8-1.4h-24.1c-2.3,0-4.2,1-5.6,3.1l-33.1,48.8L331,200.9c-1-3.3-3.3-5-6.9-5h-23.4c-1,0-2,0.5-2.8,1.4
		c-0.8,0.9-1.3,1.9-1.3,3c0,0.4,2,6.6,6.1,18.4c4.1,11.9,8.4,24.7,13.1,38.4c4.7,13.7,7.1,21,7.3,21.9
		c-17.1,23.3-25.6,35.8-25.6,37.5c0,2.7,1.4,4.1,4.1,4.1H325.7z M472.9,242.2c17.9,0,32-5,42.2-15.2c10.2-10.1,15.3-24.1,15.3-42
		c0-12.3-4-21.2-12-26.7c-8-5.5-18.5-8.3-31.4-8.3h-49.7c-4.2,0-6.5,2-6.9,5.9l-20.3,127.5c-0.2,1.3,0.1,2.4,0.9,3.4
		c0.8,1,1.9,1.6,3.1,1.6h25.6c2.5,0,4.2-1.4,5-4.1l5.6-36.3c0.2-1.7,0.9-3,2.2-4.1c1.2-1,2.8-1.7,4.7-2c1.9-0.3,3.6-0.5,5.3-0.5
		c1.7,0,3.6,0.1,5.9,0.3C470.8,242.1,472.3,242.2,472.9,242.2z M597.1,224.2c3.9,3.4,5.8,8.2,5.8,14.2c0,7.5-2.7,13.9-8,19.1
		c-5.3,5.2-11.7,7.8-19.2,7.8c-6,0-10.9-1.7-14.7-5c-3.8-3.3-5.6-7.9-5.6-13.8c0-7.7,2.6-14.2,7.8-19.5c5.2-5.3,11.7-8,19.4-8
		C588.4,219.1,593.3,220.8,597.1,224.2z M639.8,200.9c0.2-1.3-0.1-2.4-0.9-3.4c-0.8-1-1.9-1.6-3.1-1.6H612c-2.9,0-4.7,3.4-5.3,10.3
		c-5.4-8.3-15.3-12.5-29.7-12.5c-15,0-27.8,5.6-38.3,16.9c-10.5,11.3-15.8,24.5-15.8,39.7c0,12.3,3.6,22.1,10.8,29.4
		c7.2,7.3,16.8,10.9,28.9,10.9c6,0,12.2-1.3,18.4-3.8c6.3-2.5,11.1-5.8,14.7-10c0,0.2-0.2,1.1-0.6,2.8c-0.4,1.7-0.6,2.9-0.6,3.8
		c0,3.3,1.4,5,4.1,5h21.6c4,0,6.2-2,6.9-5.9L639.8,200.9z M695.1,154.7L695.1,154.7l0-0.3c0-2.9-1.4-4.4-4.1-4.4h-23.1
		c-2.3,0-3.6,1.1-4.1,3.4l-20.3,130l-0.3,0.6c0,1,0.4,2,1.3,3c0.8,0.9,1.9,1.4,3.1,1.4h20.6c4,0,6.1-2,6.6-5.9L695.1,154.7z
		 M489.5,182.3c2.5,2.2,3.7,5.4,3.8,9.5c0,8.8-2.3,14.7-6.9,17.8c-4.6,3.1-11.5,4.7-20.6,4.7l-10,0.3l5.3-33.4
		c0.4-2.3,1.8-3.4,4.1-3.4h5.6c4.6,0,8.2,0.2,10.9,0.6C484.4,178.9,487,180.2,489.5,182.3z M133.8,181.4c3.7,2.4,5,7.5,3.7,15.2
		c-1,7.3-3.8,12.1-8.1,14.4c-4.4,2.3-10.6,3.4-18.8,3.4l-10.3,0.3l5.3-33.4c0.4-2.3,1.8-3.4,4.1-3.4h5.9
		C124,177.8,130.1,179,133.8,181.4z"/>
</g>
</svg>
