<?xml version="1.0" encoding="utf-8"?>
<!-- Generator: Adobe Illustrator 21.0.2, SVG Export Plug-In . SVG Version: 6.00 Build 0)  -->
<svg version="1.1" id="Слой_1" xmlns="http://www.w3.org/2000/svg" xmlns:xlink="http://www.w3.org/1999/xlink" x="0px" y="0px"
	 viewBox="0 0 32 32" style="enable-background:new 0 0 32 32;" xml:space="preserve">
<g>
	<path d="M7,17h18c0.6,0,1-0.4,1-1s-0.4-1-1-1H7c-0.6,0-1,0.4-1,1S6.4,17,7,17z M7,11h18c0.6,0,1-0.4,1-1s-0.4-1-1-1H7
		c-0.6,0-1,0.4-1,1S6.4,11,7,11z M7,23h18c0.6,0,1-0.4,1-1s-0.4-1-1-1H7c-0.6,0-1,0.4-1,1S6.4,23,7,23z"/>
</g>
</svg>
